Coordinates
version=1
nRows=32
nColumns=22
inDegrees=yes

Units are S.I. units (second, meters, Newtons, ...)
If the header above contains a line with 'inDegrees', this indicates whether rotational values are in degrees (yes) or radians (no).

endheader
time	pelvis_tilt	pelvis_list	pelvis_rotation	pelvis_tx	pelvis_ty	pelvis_tz	hip_flexion_r	hip_adduction_r	hip_rotation_r	knee_angle_r	ankle_angle_r	subtalar_angle_r	hip_flexion_l	hip_adduction_l	hip_rotation_l	knee_angle_l	ankle_angle_l	subtalar_angle_l	lumbar_extension	lumbar_bending	lumbar_rotation
      2.39000000	      3.71017037	     -2.46842339	    -34.30337095	     -0.41467124	      0.88012230	     -0.08248529	    -17.44738583	      2.42563272	     -5.43031356	    -13.85916505	     25.34869502	     -4.13769241	     25.40433144	     -4.11451021	    -16.93317050	    -23.85295549	      6.14663982	     -1.42426084	    -12.18992756	     -1.21850783	     10.57372131
      2.40000000	      3.69099351	     -2.25207320	    -34.68133431	     -0.40574836	      0.87934172	     -0.07833735	    -17.52845464	      1.97849111	     -5.13815555	    -14.65732770	     25.22956251	     -3.95415185	     25.28703072	     -3.90152715	    -16.89033136	    -24.44545743	      6.05179045	     -2.24633573	    -11.90236129	     -1.41711512	     10.76499633
      2.41000000	      3.65056183	     -1.98766750	    -35.04450748	     -0.39660466	      0.87863905	     -0.07419603	    -17.54686321	      1.48847441	     -4.81336367	    -15.48856160	     24.97992527	     -3.73677970	     25.19431952	     -3.62974701	    -16.78800737	    -25.06321998	      5.84155191	     -2.82212350	    -11.54442035	     -1.64151973	     10.95551433
      2.42000000	      3.60444991	     -1.72248808	    -35.34064669	     -0.38722044	      0.87808174	     -0.07017117	    -17.54884169	      1.00077375	     -4.49280061	    -16.33931766	     24.52593248	     -3.29664023	     25.11498606	     -3.30233467	    -16.54389420	    -25.71299641	      5.71440423	     -3.68728945	    -11.17530104	     -1.84281941	     11.11901233
      2.43000000	      3.56043026	     -1.42023833	    -35.61340358	     -0.37770021	      0.87766503	     -0.06620603	    -17.46385844	      0.47691349	     -4.07326497	    -17.30208109	     24.01997510	     -2.87128973	     25.06568031	     -2.92479043	    -16.29365507	    -26.38786379	      5.51450099	     -4.37373181	    -10.78598585	     -2.07191390	     11.24672426
      2.44000000	      3.52661632	     -1.12349811	    -35.79220198	     -0.36796918	      0.87745339	     -0.06239774	    -17.34689967	     -0.03065209	     -3.64313341	    -18.33538690	     23.27707917	     -2.25745753	     25.02420101	     -2.48242786	    -15.90209570	    -27.08139990	      5.44749610	     -5.21439963	    -10.41611311	     -2.28005720	     11.34465382
      2.45000000	      3.51427328	     -0.81728531	    -35.90075591	     -0.35807981	      0.87745644	     -0.05866662	    -17.17730733	     -0.53453494	     -3.14088249	    -19.47467510	     22.34795800	     -1.57110409	     24.97622593	     -1.98780881	    -15.47622875	    -27.78294732	      5.46123728	     -6.01858184	    -10.06295302	     -2.50146646	     11.37351796
      2.46000000	      3.52286818	     -0.52185494	    -35.94176710	     -0.34808801	      0.87769097	     -0.05501700	    -16.93736623	     -1.01035022	     -2.57119543	    -20.76306033	     21.20676231	     -0.84023159	     24.89333282	     -1.45472592	    -15.00441790	    -28.46213106	      5.57679969	     -6.77111876	     -9.74816417	     -2.72041182	     11.36985426
      2.47000000	      3.54015578	     -0.23703228	    -35.93422477	     -0.33805982	      0.87813405	     -0.05141347	    -16.58301714	     -1.44845063	     -1.92590516	    -22.24392619	     19.85092226	     -0.08681841	     24.76208284	     -0.90639258	    -14.53567424	    -29.08563390	      5.76721020	     -7.46695086	     -9.46077307	     -2.93710730	     11.34457474
      2.48000000	      3.57767672	      0.01200851	    -35.87843238	     -0.32806354	      0.87880625	     -0.04788360	    -16.11685285	     -1.82850115	     -1.22003606	    -23.94306783	     18.28781186	      0.66387952	     24.53196542	     -0.35008015	    -14.05378233	    -29.60397815	      6.04177869	     -8.09213783	     -9.24133213	     -3.13825734	     11.30422379
      2.49000000	      3.61763596	      0.24062863	    -35.80606694	     -0.31817548	      0.87965035	     -0.04439329	    -15.48616495	     -2.15765068	     -0.45933250	    -25.88830463	     16.53111551	      1.37406251	     24.20884514	      0.19491496	    -13.61844749	    -29.98858161	      6.36331803	     -8.63861608	     -9.06377384	     -3.33228191	     11.25041166
      2.50000000	      3.66912747	      0.44075776	    -35.70771082	     -0.30842830	      0.88065076	     -0.04097009	    -14.69847622	     -2.43629237	      0.28494267	    -28.07477596	     14.58742396	      2.05728866	     23.77213024	      0.72466710	    -13.24141009	    -30.22360829	      6.73910648	     -9.12338011	     -8.94889042	     -3.51525782	     11.15022561
      2.51000000	      3.69273904	      0.64066555	    -35.66840842	     -0.29899190	      0.88169377	     -0.03754033	    -13.65338133	     -2.67513746	      1.10323545	    -30.55140457	     12.59978045	      2.48589931	     23.27108933	      1.19305139	    -13.01643455	    -30.30550798	      7.10653536	     -9.42282963	     -8.84320998	     -3.70259691	     11.10606928
      2.52000000	      3.72451311	      0.82907241	    -35.64629108	     -0.28982404	      0.88277680	     -0.03416190	    -12.41504588	     -2.90079241	      1.82538063	    -33.27078220	     10.58367306	      2.81839632	     22.68351606	      1.62062877	    -12.93588738	    -30.25844437	      7.50207022	     -9.63786569	     -8.79286278	     -3.89794482	     11.04024623
      2.53000000	      3.78387260	      1.02585938	    -35.67761542	     -0.28095521	      0.88386752	     -0.03079893	    -10.99276398	     -3.16343175	      2.44079687	    -36.20730860	      8.68614085	      2.89962430	     22.00010440	      2.02041251	    -13.04642893	    -30.07459627	      7.89347197	     -9.69629461	     -8.79976877	     -4.13598023	     10.99444684
      2.54000000	      3.85786739	      1.25359635	    -35.74190348	     -0.27235631	      0.88490404	     -0.02747844	     -9.40232788	     -3.46924568	      2.96149802	    -39.28147902	      6.98642524	      2.87953880	     21.26882051	      2.41655254	    -13.30672116	    -29.78547826	      8.31338509	     -9.66953900	     -8.83114790	     -4.42086761	     10.88209901
      2.55000000	      3.94268588	      1.50217522	    -35.84394678	     -0.26402365	      0.88585863	     -0.02423554	     -7.65841965	     -3.83298610	      3.34378999	    -42.44841224	      5.60890546	      2.78276892	     20.50230893	      2.81440148	    -13.65052224	    -29.40793045	      8.73094114	     -9.56061351	     -8.89014146	     -4.73721201	     10.80316963
      2.56000000	      4.06704196	      1.78357244	    -35.97628241	     -0.25589013	      0.88675469	     -0.02105074	     -5.82798768	     -4.28969596	      3.59818918	    -45.60966797	      4.63220731	      2.58067047	     19.69440781	      3.24229460	    -14.09840846	    -28.96539083	      9.13385135	     -9.36831536	     -8.98468891	     -5.11094676	     10.69511987
      2.57000000	      4.22818623	      2.08091888	    -36.11847523	     -0.24789792	      0.88761732	     -0.01795164	     -3.96066928	     -4.82818762	      3.72809921	    -48.67155658	      4.09497983	      2.26919827	     18.84908158	      3.70349756	    -14.59355627	    -28.47403046	      9.51066424	     -9.10683600	     -9.11681069	     -5.51560868	     10.55516351
      2.58000000	      4.40709928	      2.36777375	    -36.25059761	     -0.24001838	      0.88847271	     -0.01492511	     -2.09378713	     -5.40724017	      3.74858708	    -51.55142228	      3.98631974	      1.63751775	     17.98795979	      4.16149539	    -15.13129343	    -27.97538551	      9.81963023	     -8.70288937	     -9.28003905	     -5.91132107	     10.36426679
      2.59000000	      4.62698535	      2.62344430	    -36.35125890	     -0.23216954	      0.88942263	     -0.01199990	     -0.30716852	     -6.00928155	      3.69949112	    -54.16629490	      4.29120932	      0.84654072	     17.04198858	      4.66643826	    -15.54513843	    -27.39694147	     10.14846111	     -8.34352963	     -9.50521370	     -6.28741904	     10.13344303
      2.60000000	      4.85215167	      2.83096564	    -36.39523511	     -0.22434788	      0.89044561	     -0.00917329	      1.40737205	     -6.59697249	      3.55346337	    -56.49115545	      4.86294803	     -0.01855313	     16.07600553	      5.15420429	    -15.90688597	    -26.82901200	     10.41730925	     -8.06268706	     -9.76773134	     -6.60393424	      9.85129480
      2.61000000	      5.04967511	      2.95693878	    -36.36736761	     -0.21653776	      0.89158520	     -0.00641421	      3.01982449	     -7.07657918	      3.37576928	    -58.47103703	      5.64680067	     -1.16360237	     15.07107743	      5.59774077	    -16.10427088	    -26.22366336	     10.69984723	     -7.80333087	    -10.05305744	     -6.80728885	      9.49995976
      2.62000000	      5.20849695	      2.99667675	    -36.25751334	     -0.20873419	      0.89282947	     -0.00373209	      4.52998696	     -7.43442710	      3.15334048	    -60.10432111	      6.54691238	     -2.41862267	     14.04927496	      5.97745161	    -16.13991015	    -25.61473481	     10.95837575	     -7.60718597	    -10.35489467	     -6.88627406	      9.11387733
      2.63000000	      5.32289323	      2.95641037	    -36.06524492	     -0.20093051	      0.89416139	     -0.00109633	      5.94247054	     -7.66689696	      2.88382142	    -61.39414192	      7.47274954	     -3.70329087	     13.02150465	      6.27964708	    -16.05017379	    -25.01493916	     11.19711042	     -7.46340180	    -10.65807417	     -6.84546462	      8.68282798
      2.64000000	      5.38563885	      2.84029682	    -35.80208033	     -0.19311424	      0.89555157	      0.00153307	      7.26245252	     -7.77000193	      2.57332284	    -62.34436520	      8.38587838	     -4.99091459	     11.99178454	      6.48723459	    -15.88390179	    -24.42315309	     11.45325105	     -7.35039774	    -10.94339056	     -6.68629997	      8.21393909
      2.65000000	      5.40470263	      2.67945526	    -35.48065839	     -0.18528651	      0.89696829	      0.00414416	      8.51317824	     -7.78025186	      2.23275181	    -62.97938799	      9.23837255	     -6.10350114	     10.95877389	      6.64029150	    -15.60160685	    -23.80474324	     11.65551986	     -7.25701731	    -11.19726216	     -6.44596296	      7.74366862
      2.66000000	      5.38676571	      2.46669613	    -35.15172609	     -0.17751794	      0.89835433	      0.00683083	      9.70502148	     -7.67728785	      1.91928485	    -63.32882973	     10.07330038	     -7.19380084	      9.93689164	      6.69368689	    -15.35888455	    -23.21722370	     11.92614971	     -7.14959518	    -11.42640558	     -6.13554153	      7.29925337
      2.67000000	      5.34817025	      2.24999403	    -34.80268131	     -0.16974604	      0.89967892	      0.00953870	     10.85371285	     -7.54237643	      1.59451895	    -63.41350530	     10.81396872	     -8.02888958	      8.91787730	      6.72134044	    -15.09322870	    -22.60602978	     12.15125080	     -7.02597984	    -11.61638550	     -5.80298307	      6.85730990
      2.68000000	      5.29485615	      2.04418820	    -34.49234836	     -0.16203288	      0.90086894	      0.01235995	     11.98760705	     -7.37473188	      1.32832964	    -63.27066029	     11.53561576	     -8.81295090	      7.92097305	      6.71218700	    -14.93417452	    -22.00523651	     12.40248036	     -6.86088695	    -11.75876656	     -5.48272499	      6.46611544
      2.69000000	      5.23729411	      1.85538094	    -34.15946650	     -0.15429083	      0.90193615	      0.01517275	     13.07985699	     -7.22909931	      1.02034158	    -62.89882486	     12.14234486	     -9.32396322	      6.92888818	      6.71217299	    -14.72261768	    -21.38585540	     12.60973186	     -6.67832573	    -11.86766463	     -5.17033695	      6.07579621
      2.70000000	      5.17775687	      1.69950690	    -33.87076662	     -0.14660633	      0.90280443	      0.01808155	     14.16194042	     -7.09449445	      0.75597040	    -62.33294266	     12.73778391	     -9.86601625	      5.97140635	      6.70796897	    -14.60658918	    -20.79355006	     12.83730250	     -6.43845851	    -11.93472362	     -4.89997210	      5.72966071
